<mxfile host="app.diagrams.net" agent="Mozilla/5.0 (Windows NT 10.0; Win64; x64) AppleWebKit/537.36 (KHTML, like Gecko) Chrome/118.0.0.0 Safari/537.36" version="26.2.14">
  <diagram name="第 1 页" id="1295jyWJPXHdm2VBkrFt">
    <mxGraphModel dx="420" dy="773" grid="1" gridSize="10" guides="1" tooltips="1" connect="1" arrows="1" fold="1" page="1" pageScale="1" pageWidth="827" pageHeight="1169" math="0" shadow="0">
      <root>
        <mxCell id="0" />
        <mxCell id="1" parent="0" />
        <mxCell id="8gvm6aDRC6TsxiFGJfNM-1" value="train_env.py&lt;div&gt;&lt;div&gt;&lt;br&gt;&lt;/div&gt;&lt;/div&gt;" style="rounded=1;whiteSpace=wrap;html=1;sketch=1;curveFitting=1;jiggle=2;" vertex="1" parent="1">
          <mxGeometry x="260" y="220" width="120" height="60" as="geometry" />
        </mxCell>
        <mxCell id="8gvm6aDRC6TsxiFGJfNM-3" style="rounded=0;orthogonalLoop=1;jettySize=auto;html=1;entryX=1;entryY=0.5;entryDx=0;entryDy=0;" edge="1" parent="1" source="8gvm6aDRC6TsxiFGJfNM-2" target="8gvm6aDRC6TsxiFGJfNM-1">
          <mxGeometry relative="1" as="geometry" />
        </mxCell>
        <mxCell id="8gvm6aDRC6TsxiFGJfNM-4" value="用于创建训练和测试环境" style="edgeLabel;html=1;align=center;verticalAlign=middle;resizable=0;points=[];" vertex="1" connectable="0" parent="8gvm6aDRC6TsxiFGJfNM-3">
          <mxGeometry x="-0.1011" y="-3" relative="1" as="geometry">
            <mxPoint x="-13" y="-25" as="offset" />
          </mxGeometry>
        </mxCell>
        <mxCell id="8gvm6aDRC6TsxiFGJfNM-2" value="&lt;div&gt;&lt;div&gt;env_wrappers.py&lt;/div&gt;&lt;/div&gt;" style="rounded=1;whiteSpace=wrap;html=1;sketch=1;curveFitting=1;jiggle=2;" vertex="1" parent="1">
          <mxGeometry x="600" y="30" width="120" height="60" as="geometry" />
        </mxCell>
        <mxCell id="8gvm6aDRC6TsxiFGJfNM-6" style="rounded=0;orthogonalLoop=1;jettySize=auto;html=1;" edge="1" parent="1" source="8gvm6aDRC6TsxiFGJfNM-5" target="8gvm6aDRC6TsxiFGJfNM-1">
          <mxGeometry relative="1" as="geometry" />
        </mxCell>
        <mxCell id="8gvm6aDRC6TsxiFGJfNM-7" value="提供默认的超参数" style="edgeLabel;html=1;align=center;verticalAlign=middle;resizable=0;points=[];" vertex="1" connectable="0" parent="8gvm6aDRC6TsxiFGJfNM-6">
          <mxGeometry x="0.0922" y="-4" relative="1" as="geometry">
            <mxPoint y="-1" as="offset" />
          </mxGeometry>
        </mxCell>
        <mxCell id="8gvm6aDRC6TsxiFGJfNM-5" value="&lt;div&gt;&lt;div&gt;config.py&lt;/div&gt;&lt;/div&gt;" style="rounded=1;whiteSpace=wrap;html=1;sketch=1;curveFitting=1;jiggle=2;" vertex="1" parent="1">
          <mxGeometry x="600" y="310" width="120" height="60" as="geometry" />
        </mxCell>
        <mxCell id="8gvm6aDRC6TsxiFGJfNM-9" style="rounded=0;orthogonalLoop=1;jettySize=auto;html=1;entryX=0.75;entryY=1;entryDx=0;entryDy=0;" edge="1" parent="1" source="8gvm6aDRC6TsxiFGJfNM-8" target="8gvm6aDRC6TsxiFGJfNM-1">
          <mxGeometry relative="1" as="geometry" />
        </mxCell>
        <mxCell id="8gvm6aDRC6TsxiFGJfNM-11" value="进行训练和评估" style="edgeLabel;html=1;align=center;verticalAlign=middle;resizable=0;points=[];" vertex="1" connectable="0" parent="8gvm6aDRC6TsxiFGJfNM-9">
          <mxGeometry x="0.0885" y="2" relative="1" as="geometry">
            <mxPoint as="offset" />
          </mxGeometry>
        </mxCell>
        <mxCell id="8gvm6aDRC6TsxiFGJfNM-8" value="&lt;div&gt;&lt;div&gt;runner.py&lt;/div&gt;&lt;/div&gt;" style="rounded=1;whiteSpace=wrap;html=1;sketch=1;curveFitting=1;jiggle=2;" vertex="1" parent="1">
          <mxGeometry x="600" y="670" width="120" height="60" as="geometry" />
        </mxCell>
        <mxCell id="8gvm6aDRC6TsxiFGJfNM-13" style="edgeStyle=orthogonalEdgeStyle;rounded=0;orthogonalLoop=1;jettySize=auto;html=1;entryX=1;entryY=0.5;entryDx=0;entryDy=0;" edge="1" parent="1" source="8gvm6aDRC6TsxiFGJfNM-12" target="8gvm6aDRC6TsxiFGJfNM-8">
          <mxGeometry relative="1" as="geometry" />
        </mxCell>
        <mxCell id="8gvm6aDRC6TsxiFGJfNM-14" value="提供HAPPO算法训练器的基本抽象定义" style="edgeLabel;html=1;align=center;verticalAlign=middle;resizable=0;points=[];" vertex="1" connectable="0" parent="8gvm6aDRC6TsxiFGJfNM-13">
          <mxGeometry x="0.081" y="-2" relative="1" as="geometry">
            <mxPoint x="11" y="-28" as="offset" />
          </mxGeometry>
        </mxCell>
        <mxCell id="8gvm6aDRC6TsxiFGJfNM-12" value="&lt;div&gt;&lt;div&gt;base_runner.py&lt;/div&gt;&lt;/div&gt;" style="rounded=1;whiteSpace=wrap;html=1;sketch=1;curveFitting=1;jiggle=2;" vertex="1" parent="1">
          <mxGeometry x="1000" y="670" width="120" height="60" as="geometry" />
        </mxCell>
        <mxCell id="8gvm6aDRC6TsxiFGJfNM-15" value="" style="ellipse;whiteSpace=wrap;html=1;" vertex="1" parent="1">
          <mxGeometry x="470" y="840" width="120" height="80" as="geometry" />
        </mxCell>
        <mxCell id="8gvm6aDRC6TsxiFGJfNM-16" value="" style="rounded=0;whiteSpace=wrap;html=1;" vertex="1" parent="1">
          <mxGeometry x="600" y="770" width="120" height="60" as="geometry" />
        </mxCell>
      </root>
    </mxGraphModel>
  </diagram>
</mxfile>
